User Type,Username,Date,Text
,saint84,2012-08-07T17:37Z,"TITLE: Total Recall 2012 TS READNFO XviD - T.R.M


IMDB: http://www.imdb.com/title/tt1386703/


SOURCES:
AUDIO - Tooth Fairy
VIDEO - mpeg file from santa                                                                                          


STATS:

Video
ID                                       : 0
Format                                   : MPEG-4 Visual
Format profile                           : Advanced Simple@L5
Format settings, BVOP                    : 2
Format settings, QPel                    : No
Format settings, GMC                     : No warppoints
Format settings, Matrix                  : Default (MPEG)
Muxing mode                              : Packed bitstream
Codec ID                                 : XVID
Codec ID/Hint                            : XviD
Duration                                 : 1h 44mn
Bit rate                                 : 900 Kbps
Width                                    : 512 pixels
Height                                   : 208 pixels
Display aspect ratio                     : 2.462
Frame rate                               : 25.000 fps
Color space                              : YUV
Chroma subsampling                       : 4:2:0
Bit depth                                : 8 bits
Scan type                                : Progressive
Compression mode                         : Lossy
Bits/(Pixel*Frame)                       : 0.338
Stream size                              : 675 MiB (87%)
Writing library                          : XviD 64

Audio
ID                                       : 1
Format                                   : MPEG Audio
Format version                           : Version 1
Format profile                           : Layer 3
Codec ID                                 : 55
Codec ID/Hint                            : MP3
Duration                                 : 1h 44mn
Bit rate mode                            : Constant
Bit rate                                 : 128 Kbps
Channel(s)                               : 2 channels
Sampling rate                            : 44.1 KHz
Compression mode                         : Lossy
Stream size                              : 96.0 MiB (12%)
Alignment                                : Split accross interleaves
Interleave, duration                     : 40 ms (1.00 video frame)
Interleave, preload duration             : 500 ms



WORKDONE:

First off readnfo .....basically to tell ya the video is pretty poo and is missing a few mins :(

The was a low res crap mpeg file,so first off we needed too crop borders ...upscale the max we could 
then clean it up.
Audio was some nice line ....and thought what the hell we'll sync it anyway,gives users a little taste of
what th film is like :)
Pita to sync aswell ...but we got there in the end.

screenies:
[img]http://i.imgrz.com/Oz17f.png[/img] 
[img]http://i.imgrz.com/Ve7b.png[/img] 
[img]http://i.imgrz.com/8mf0z.png[/img] 
[img]http://i.imgrz.com/Vk6E.png[/img] "
